<svg xmlns="http://www.w3.org/2000/svg" viewBox="0 0 625 258"><g fill="none" stroke-width="2"><path stroke="#a8bdf7" d="M108.89 86.73q-5.16-.12-10.36.21a.57.57 0 0 0-.53.57v19.36a.44.44 0 0 0 .44.44l47.36-.24a.42.42 0 0 1 .41.49c-1.51 8.19-3.86 16.67-9.39 23.01-8.74 10-20.35 15.29-33.69 16.46-30.19 2.64-56.88-20.13-58.1-50.54-1.93-47.95 52.85-75.22 88.86-42.64a.69.68 43.5 0 0 .95-.02l13.25-13.43a.73.72 43.7 0 0-.03-1.06q-24.58-22.27-56.42-19.52c-47.81 4.13-81.32 52.44-64.22 98.5 7.85 21.14 24.69 37.69 46.09 45 36.47 12.46 80.56-3.42 90.7-43.34q4.12-16.22 1.79-32.47a.59.58-3.9 0 0-.58-.5c-18.83.02-37.69.17-56.53-.28" vector-effect="non-scaling-stroke"/><path stroke="#adcfa7" d="M504.51 25.07a.57.57 0 0 0-.57-.57h-19.62a.57.57 0 0 0-.57.57v139.12a.57.57 0 0 0 .57.57h19.62a.57.57 0 0 0 .57-.57V25.07" vector-effect="non-scaling-stroke"/><path stroke="#e4a39b" d="M268.78 119.83A47.83 47.83 0 0 0 220.95 72a47.83 47.83 0 0 0-47.83 47.83 47.83 47.83 0 0 0 47.83 47.83 47.83 47.83 0 0 0 47.83-47.83" vector-effect="non-scaling-stroke"/><path stroke="#f5db96" d="M372.05 119.82a47.86 47.86 0 0 0-47.86-47.86 47.86 47.86 0 0 0-47.86 47.86 47.86 47.86 0 0 0 47.86 47.86 47.86 47.86 0 0 0 47.86-47.86" vector-effect="non-scaling-stroke"/><path stroke="#a8bdf7" d="M450.3 82.68q-11.61-11.49-27.32-10.43c-24.75 1.66-44.05 23.98-43.4 48.59.48 18.47 11.03 35.02 27.96 42.63 15.17 6.82 30.84 5.19 42.9-6.67a.27.27 0 0 1 .46.2c-.15 11.4-.01 22.23-9.73 29.66q-5.07 3.87-12.25 4.56-18.25 1.75-27.09-16.14a.62.6 65.2 0 0-.78-.3l-17.23 7.13a.45.45 0 0 0-.24.61q10.15 22.02 32.6 26.73c19.43 4.08 41.62-3.98 49.54-22.8 5-11.87 4.98-22.28 5-37.75q.07-36.29.01-72.14a1.12 1.12 0 0 0-1.11-1.12l-17.66-.1a.96.95 0 0 0-.96.95v6.09q0 .99-.7.3" vector-effect="non-scaling-stroke"/><path stroke="#e4a39b" d="m538.48 134.09 62.46-25.88a.62.61-20.4 0 0 .35-.75c-6.52-19.86-20.86-35.18-42.59-35.17-28.39.02-47.47 24.95-44.57 52.62 4.66 44.53 60.97 57.98 86.15 21.9a.57.57 0 0 0-.15-.8L585 135.82a.61.6-54.8 0 0-.84.15c-11.68 16.48-36.47 17.95-45.86-1.41a.35.35 0 0 1 .18-.47" vector-effect="non-scaling-stroke"/><path stroke="#b2b1b2" d="M546.41 181.37a1.87.97 90 0 0 .97-1.87 1.87.97 90 0 0-.97-1.87 1.87.97 90 0 0-.97 1.87 1.87.97 90 0 0 .97 1.87" vector-effect="non-scaling-stroke"/><path stroke="#8a8a8a" d="M496.1 193.7c5.96-2.46 7.17-10.35 1.86-13.96-3.08-2.09-9.65-1.22-13.53-1.31a.51.51 0 0 0-.52.51l.06 24.06a.49.49 0 0 0 .54.49l.25-.03a.53.53 0 0 0 .49-.53v-8.33a.64.64 0 0 1 .65-.64l7.43.13a1.03 1.03 0 0 1 .83.45c1 1.51 5.38 9.05 6.75 9.16a.43.43 0 0 0 .39-.66l-5.49-8.4a.64.64 0 0 1 .29-.94" vector-effect="non-scaling-stroke"/><path stroke="#facd8f" d="M64.48 202.34a.67.67 0 0 1-.64-.46l-5.44-17.02a.67.67 0 0 0-1.28 0l-5.44 17.02a.67.67 0 0 1-.64.46l-17.87-.08a.67.67 0 0 0-.4 1.21l14.51 10.44a.67.67 0 0 1 .24.75l-5.6 16.97a.67.67 0 0 0 1.04.75l14.4-10.57a.67.67 0 0 1 .8 0l14.4 10.57a.67.67 0 0 0 1.04-.75L68 214.66a.67.67 0 0 1 .24-.75l14.51-10.44a.67.67 0 0 0-.4-1.21l-17.87.08m64.46.06a.82.82 0 0 1-.79-.57L122.92 185a.82.82 0 0 0-1.56 0l-5.23 16.83a.82.82 0 0 1-.79.57l-17.62-.23a.82.82 0 0 0-.48 1.49l14.39 10.17a.82.82 0 0 1 .3.93l-5.66 16.69a.82.82 0 0 0 1.26.92l14.12-10.54a.82.82 0 0 1 .98 0l14.12 10.54a.82.82 0 0 0 1.26-.92l-5.66-16.69a.82.82 0 0 1 .3-.93l14.39-10.17a.82.82 0 0 0-.48-1.49l-17.62.23m64.38-.04a.79.79 0 0 1-.76-.55l-5.28-16.8a.79.79 0 0 0-1.5 0l-5.28 16.8a.79.79 0 0 1-.76.55l-17.61-.17a.79.79 0 0 0-.47 1.43l14.35 10.21a.79.79 0 0 1 .29.9l-5.6 16.69a.79.79 0 0 0 1.22.89l14.14-10.49a.79.79 0 0 1 .94 0l14.14 10.49a.79.79 0 0 0 1.22-.89l-5.6-16.69a.79.79 0 0 1 .29-.9l14.35-10.21a.79.79 0 0 0-.47-1.43l-17.61.17m64.38.03a.81.81 0 0 1-.78-.57l-5.24-16.88a.81.81 0 0 0-1.54 0l-5.24 16.88a.81.81 0 0 1-.78.57l-17.68-.23a.81.81 0 0 0-.47 1.47l14.43 10.19a.81.81 0 0 1 .3.93l-5.68 16.73a.81.81 0 0 0 1.25.91l14.16-10.58a.81.81 0 0 1 .96 0l14.16 10.58a.81.81 0 0 0 1.25-.91l-5.68-16.73a.81.81 0 0 1 .3-.93l14.43-10.19a.81.81 0 0 0-.47-1.47l-17.68.23m64.39.03a.81.81 0 0 1-.79-.57l-5.23-16.86a.81.81 0 0 0-1.54 0l-5.23 16.86a.81.81 0 0 1-.79.57l-17.65-.23a.81.81 0 0 0-.48 1.47l14.42 10.18a.81.81 0 0 1 .3.92l-5.68 16.72a.81.81 0 0 0 1.25.91l14.15-10.57a.81.81 0 0 1 .96 0l14.15 10.57a.81.81 0 0 0 1.25-.91l-5.68-16.72a.81.81 0 0 1 .3-.92l14.42-10.18a.81.81 0 0 0-.48-1.47l-17.65.23" vector-effect="non-scaling-stroke"/><path stroke="#b2b1b2" d="M553.54 195.85a.44.44 0 0 1 .41-.6h14.99a1.12 1.11 86.6 0 0 1.1-1.25c-1.57-12.84-18.59-11.54-18.28 1.01.21 8.41 11.44 12.16 16.59 4.92a.57.57 0 0 0-.11-.78c-.54-.42-1.05-.16-1.53.29-5.27 4.98-10.87 2.47-13.17-3.59m47.6-7.35c-3.08 6.92 8.92 5.61 11.1 8.4 1.35 1.72-.33 4.51-2.01 4.85q-5.13 1.05-9.09-1.93a.55.55 0 0 0-.87.34q-.14.79.34 1.16 5.55 4.23 11.31 1.35c2.34-1.17 3.53-4.11 2.03-6.28-1.56-2.27-6.8-3.12-9.61-3.81a2.15 2.14 5.8 0 1-1.62-1.98c-.26-5.63 7.51-4.21 10.31-2.3a.46.45 30.3 0 0 .66-.17c1.2-2.44-9.86-5.67-12.55.37" vector-effect="non-scaling-stroke"/><path stroke="#8a8a8a" d="M515.97 185.47c-9.83-1.61-13.73 11.17-5.99 16.59 3.28 2.29 10.12 2.02 12.11-2.57a.12.12 0 0 0-.08-.16l-.32-.09a.69.68-61 0 0-.67.2c-4.73 5.03-12.33 3.15-13.77-3.56a.73.73 0 0 1 .71-.88h14.57a1.06 1.05-4 0 0 1.05-1.2q-1.03-7.25-7.61-8.33m17.44 15.57-6.27-15.31a.78.78 0 0 0-.8-.48l-.29.03a.56.55 75.5 0 0-.45.77l7.19 16.98a1.06 1.06 0 0 0 1.94.01l7.56-17.06a.5.49-75.8 0 0-.41-.7q-1.28-.1-1.75 1.14-2.53 6.74-6.06 14.63a.36.36 0 0 1-.66-.01" vector-effect="non-scaling-stroke"/><path stroke="#b2b1b2" d="M547.25 185.73a.43.43 0 0 0-.43-.43h-.88a.43.43 0 0 0-.43.43v17.36a.43.43 0 0 0 .43.43h.88a.43.43 0 0 0 .43-.43v-17.36m41.95 14.57-2.94-7.13a1.38 1.35-45.7 0 1 0-1.03l2.54-6.2a.51.51 0 0 0-.64-.68l-.47.16a1.02 1-.2 0 0-.63.62l-1.51 4.2a.5.5 0 0 1-.92.05c-.65-1.31-1.53-4.96-3.1-5.01a.4.4 0 0 0-.38.55l2.59 6.11a1.85 1.84-44.8 0 1-.01 1.44l-2.99 6.92a.61.6 44.9 0 1-1.11 0c-.88-2.03-6.01-15.71-7.81-14.98a.52.51-22.9 0 0-.28.68l7.45 16.99a1.2 1.2 0 0 0 2.21-.03l3.14-7.68a.67.67 0 0 1 1.23-.01l3.4 7.92a1.03 1.03 0 0 0 1.9 0l7.34-17.04a.69.69 0 0 0-.58-.96c-1.19-.09-6.4 13.2-7.23 15.12a.65.65 0 0 1-1.2-.01" vector-effect="non-scaling-stroke"/><path stroke="#e4a39b" d="M220.85 148.65a28.81 26.86 90.2 0 0 26.96-28.716 28.81 26.86 90.2 0 0-26.76-28.904 28.81 26.86 90.2 0 0-26.96 28.716 28.81 26.86 90.2 0 0 26.76 28.904" vector-effect="non-scaling-stroke"/><path stroke="#f5db96" d="M324.13 148.62A28.79 26.82 90.1 0 0 351 119.877a28.79 26.82 90.1 0 0-26.77-28.837 28.79 26.82 90.1 0 0-26.87 28.743 28.79 26.82 90.1 0 0 26.77 28.837" vector-effect="non-scaling-stroke"/><path stroke="#a8bdf7" d="M426.54 148.71a28.85 25.95 90 0 0 25.95-28.85 28.85 25.95 90 0 0-25.95-28.85 28.85 25.95 90 0 0-25.95 28.85 28.85 25.95 90 0 0 25.95 28.85" vector-effect="non-scaling-stroke"/><path stroke="#e4a39b" d="M540.49 100.48q-5.96 7.53-5.9 17.38a.32.32 0 0 0 .44.3l41.31-17.22a.89.89 0 0 0 .39-1.32c-9.12-12.95-26.91-10.95-36.24.86" vector-effect="non-scaling-stroke"/><path stroke="#8a8a8a" d="M493.86 192.73c5.66-.08 7.61-6.41 4.76-10.63-2.39-3.53-9.3-2.81-12.78-2.27a.69.69 0 0 0-.59.68v11.69a.52.52 0 0 0 .51.52q4.08.07 8.1.01" vector-effect="non-scaling-stroke"/><path stroke="#b2b1b2" d="M567.92 192.97c-1.56-8.36-12.93-8.51-14.3.03a.43.43 0 0 0 .43.5h13.43a.45.45 0 0 0 .44-.53" vector-effect="non-scaling-stroke"/><path stroke="#8a8a8a" d="M522.18 192.92c-2.4-8.95-14.69-8.12-14.77.27a.57.57 0 0 0 .57.57l13.57-.02a.65.65 0 0 0 .63-.82" vector-effect="non-scaling-stroke"/></g><path fill="#fff" d="M0 0h625v258H0V0Zm108.89 86.73q-5.16-.12-10.36.21a.57.57 0 0 0-.53.57v19.36a.44.44 0 0 0 .44.44l47.36-.24a.42.42 0 0 1 .41.49c-1.51 8.19-3.86 16.67-9.39 23.01-8.74 10-20.35 15.29-33.69 16.46-30.19 2.64-56.88-20.13-58.1-50.54-1.93-47.95 52.85-75.22 88.86-42.64a.69.68 43.5 0 0 .95-.02l13.25-13.43a.73.72 43.7 0 0-.03-1.06q-24.58-22.27-56.42-19.52c-47.81 4.13-81.32 52.44-64.22 98.5 7.85 21.14 24.69 37.69 46.09 45 36.47 12.46 80.56-3.42 90.7-43.34q4.12-16.22 1.79-32.47a.59.58-3.9 0 0-.58-.5c-18.83.02-37.69.17-56.53-.28Zm395.62-61.66a.57.57 0 0 0-.57-.57h-19.62a.57.57 0 0 0-.57.57v139.12a.57.57 0 0 0 .57.57h19.62a.57.57 0 0 0 .57-.57V25.07Zm-235.73 94.76A47.83 47.83 0 0 0 220.95 72a47.83 47.83 0 0 0-47.83 47.83 47.83 47.83 0 0 0 47.83 47.83 47.83 47.83 0 0 0 47.83-47.83Zm103.27-.01a47.86 47.86 0 0 0-47.86-47.86 47.86 47.86 0 0 0-47.86 47.86 47.86 47.86 0 0 0 47.86 47.86 47.86 47.86 0 0 0 47.86-47.86Zm78.25-37.14q-11.61-11.49-27.32-10.43c-24.75 1.66-44.05 23.98-43.4 48.59.48 18.47 11.03 35.02 27.96 42.63 15.17 6.82 30.84 5.19 42.9-6.67a.27.27 0 0 1 .46.2c-.15 11.4-.01 22.23-9.73 29.66q-5.07 3.87-12.25 4.56-18.25 1.75-27.09-16.14a.62.6 65.2 0 0-.78-.3l-17.23 7.13a.45.45 0 0 0-.24.61q10.15 22.02 32.6 26.73c19.43 4.08 41.62-3.98 49.54-22.8 5-11.87 4.98-22.28 5-37.75q.07-36.29.01-72.14a1.12 1.12 0 0 0-1.11-1.12l-17.66-.1a.96.95 0 0 0-.96.95v6.09q0 .99-.7.3Zm88.18 51.41 62.46-25.88a.62.61-20.4 0 0 .35-.75c-6.52-19.86-20.86-35.18-42.59-35.17-28.39.02-47.47 24.95-44.57 52.62 4.66 44.53 60.97 57.98 86.15 21.9a.57.57 0 0 0-.15-.8L585 135.82a.61.6-54.8 0 0-.84.15c-11.68 16.48-36.47 17.95-45.86-1.41a.35.35 0 0 1 .18-.47Zm7.93 47.28a1.87.97 90 0 0 .97-1.87 1.87.97 90 0 0-.97-1.87 1.87.97 90 0 0-.97 1.87 1.87.97 90 0 0 .97 1.87ZM496.1 193.7c5.96-2.46 7.17-10.35 1.86-13.96-3.08-2.09-9.65-1.22-13.53-1.31a.51.51 0 0 0-.52.51l.06 24.06a.49.49 0 0 0 .54.49l.25-.03a.53.53 0 0 0 .49-.53v-8.33a.64.64 0 0 1 .65-.64l7.43.13a1.03 1.03 0 0 1 .83.45c1 1.51 5.38 9.05 6.75 9.16a.43.43 0 0 0 .39-.66l-5.49-8.4a.64.64 0 0 1 .29-.94Zm-431.62 8.64a.67.67 0 0 1-.64-.46l-5.44-17.02a.67.67 0 0 0-1.28 0l-5.44 17.02a.67.67 0 0 1-.64.46l-17.87-.08a.67.67 0 0 0-.4 1.21l14.51 10.44a.67.67 0 0 1 .24.75l-5.6 16.97a.67.67 0 0 0 1.04.75l14.4-10.57a.67.67 0 0 1 .8 0l14.4 10.57a.67.67 0 0 0 1.04-.75L68 214.66a.67.67 0 0 1 .24-.75l14.51-10.44a.67.67 0 0 0-.4-1.21l-17.87.08Zm64.46.06a.82.82 0 0 1-.79-.57L122.92 185a.82.82 0 0 0-1.56 0l-5.23 16.83a.82.82 0 0 1-.79.57l-17.62-.23a.82.82 0 0 0-.48 1.49l14.39 10.17a.82.82 0 0 1 .3.93l-5.66 16.69a.82.82 0 0 0 1.26.92l14.12-10.54a.82.82 0 0 1 .98 0l14.12 10.54a.82.82 0 0 0 1.26-.92l-5.66-16.69a.82.82 0 0 1 .3-.93l14.39-10.17a.82.82 0 0 0-.48-1.49l-17.62.23Zm64.38-.04a.79.79 0 0 1-.76-.55l-5.28-16.8a.79.79 0 0 0-1.5 0l-5.28 16.8a.79.79 0 0 1-.76.55l-17.61-.17a.79.79 0 0 0-.47 1.43l14.35 10.21a.79.79 0 0 1 .29.9l-5.6 16.69a.79.79 0 0 0 1.22.89l14.14-10.49a.79.79 0 0 1 .94 0l14.14 10.49a.79.79 0 0 0 1.22-.89l-5.6-16.69a.79.79 0 0 1 .29-.9l14.35-10.21a.79.79 0 0 0-.47-1.43l-17.61.17Zm64.38.03a.81.81 0 0 1-.78-.57l-5.24-16.88a.81.81 0 0 0-1.54 0l-5.24 16.88a.81.81 0 0 1-.78.57l-17.68-.23a.81.81 0 0 0-.47 1.47l14.43 10.19a.81.81 0 0 1 .3.93l-5.68 16.73a.81.81 0 0 0 1.25.91l14.16-10.58a.81.81 0 0 1 .96 0l14.16 10.58a.81.81 0 0 0 1.25-.91l-5.68-16.73a.81.81 0 0 1 .3-.93l14.43-10.19a.81.81 0 0 0-.47-1.47l-17.68.23Zm64.39.03a.81.81 0 0 1-.79-.57l-5.23-16.86a.81.81 0 0 0-1.54 0l-5.23 16.86a.81.81 0 0 1-.79.57l-17.65-.23a.81.81 0 0 0-.48 1.47l14.42 10.18a.81.81 0 0 1 .3.92l-5.68 16.72a.81.81 0 0 0 1.25.91l14.15-10.57a.81.81 0 0 1 .96 0l14.15 10.57a.81.81 0 0 0 1.25-.91l-5.68-16.72a.81.81 0 0 1 .3-.92l14.42-10.18a.81.81 0 0 0-.48-1.47l-17.65.23Zm231.45-6.57a.44.44 0 0 1 .41-.6h14.99a1.12 1.11 86.6 0 0 1.1-1.25c-1.57-12.84-18.59-11.54-18.28 1.01.21 8.41 11.44 12.16 16.59 4.92a.57.57 0 0 0-.11-.78c-.54-.42-1.05-.16-1.53.29-5.27 4.98-10.87 2.47-13.17-3.59Zm47.6-7.35c-3.08 6.92 8.92 5.61 11.1 8.4 1.35 1.72-.33 4.51-2.01 4.85q-5.13 1.05-9.09-1.93a.55.55 0 0 0-.87.34q-.14.79.34 1.16 5.55 4.23 11.31 1.35c2.34-1.17 3.53-4.11 2.03-6.28-1.56-2.27-6.8-3.12-9.61-3.81a2.15 2.14 5.8 0 1-1.62-1.98c-.26-5.63 7.51-4.21 10.31-2.3a.46.45 30.3 0 0 .66-.17c1.2-2.44-9.86-5.67-12.55.37Zm-85.17-3.03c-9.83-1.61-13.73 11.17-5.99 16.59 3.28 2.29 10.12 2.02 12.11-2.57a.12.12 0 0 0-.08-.16l-.32-.09a.69.68-61 0 0-.67.2c-4.73 5.03-12.33 3.15-13.77-3.56a.73.73 0 0 1 .71-.88h14.57a1.06 1.05-4 0 0 1.05-1.2q-1.03-7.25-7.61-8.33Zm17.44 15.57-6.27-15.31a.78.78 0 0 0-.8-.48l-.29.03a.56.55 75.5 0 0-.45.77l7.19 16.98a1.06 1.06 0 0 0 1.94.01l7.56-17.06a.5.49-75.8 0 0-.41-.7q-1.28-.1-1.75 1.14-2.53 6.74-6.06 14.63a.36.36 0 0 1-.66-.01Zm13.84-15.31a.43.43 0 0 0-.43-.43h-.88a.43.43 0 0 0-.43.43v17.36a.43.43 0 0 0 .43.43h.88a.43.43 0 0 0 .43-.43v-17.36Zm41.95 14.57-2.94-7.13a1.38 1.35-45.7 0 1 0-1.03l2.54-6.2a.51.51 0 0 0-.64-.68l-.47.16a1.02 1-.2 0 0-.63.62l-1.51 4.2a.5.5 0 0 1-.92.05c-.65-1.31-1.53-4.96-3.1-5.01a.4.4 0 0 0-.38.55l2.59 6.11a1.85 1.84-44.8 0 1-.01 1.44l-2.99 6.92a.61.6 44.9 0 1-1.11 0c-.88-2.03-6.01-15.71-7.81-14.98a.52.51-22.9 0 0-.28.68l7.45 16.99a1.2 1.2 0 0 0 2.21-.03l3.14-7.68a.67.67 0 0 1 1.23-.01l3.4 7.92a1.03 1.03 0 0 0 1.9 0l7.34-17.04a.69.69 0 0 0-.58-.96c-1.19-.09-6.4 13.2-7.23 15.12a.65.65 0 0 1-1.2-.01Z"/><path fill="#507aee" d="M108.89 86.73c18.84.45 37.7.3 56.53.28a.59.58-3.9 0 1 .58.5q2.33 16.25-1.79 32.47c-10.14 39.92-54.23 55.8-90.7 43.34-21.4-7.31-38.24-23.86-46.09-45-17.1-46.06 16.41-94.37 64.22-98.5q31.84-2.75 56.42 19.52a.73.72 43.7 0 1 .03 1.06l-13.25 13.43a.69.68 43.5 0 1-.95.02C97.88 21.27 43.1 48.54 45.03 96.49c1.22 30.41 27.91 53.18 58.1 50.54 13.34-1.17 24.95-6.46 33.69-16.46 5.53-6.34 7.88-14.82 9.39-23.01a.42.42 0 0 0-.41-.49l-47.36.24a.44.44 0 0 1-.44-.44V87.51a.57.57 0 0 1 .53-.57q5.2-.33 10.36-.21Z"/><rect width="20.76" height="140.26" x="483.75" y="24.5" fill="#5b9e4f" rx=".57"/><path fill="#c94636" d="M268.78 119.83a47.83 47.83 0 0 1-47.83 47.83 47.83 47.83 0 0 1-47.83-47.83A47.83 47.83 0 0 1 220.95 72a47.83 47.83 0 0 1 47.83 47.83Zm-47.93 28.82a28.81 26.86 90.2 0 0 26.96-28.716 28.81 26.86 90.2 0 0-26.76-28.904 28.81 26.86 90.2 0 0-26.96 28.716 28.81 26.86 90.2 0 0 26.76 28.904Z"/><path fill="#eab62c" d="M372.05 119.82a47.86 47.86 0 0 1-47.86 47.86 47.86 47.86 0 0 1-47.86-47.86 47.86 47.86 0 0 1 47.86-47.86 47.86 47.86 0 0 1 47.86 47.86Zm-47.92 28.8A28.79 26.82 90.1 0 0 351 119.877a28.79 26.82 90.1 0 0-26.77-28.837 28.79 26.82 90.1 0 0-26.87 28.743 28.79 26.82 90.1 0 0 26.77 28.837Z"/><path fill="#507aee" d="M451 82.38v-6.09a.96.95 0 0 1 .96-.95l17.66.1a1.12 1.12 0 0 1 1.11 1.12q.06 35.85-.01 72.14c-.02 15.47 0 25.88-5 37.75-7.92 18.82-30.11 26.88-49.54 22.8q-22.45-4.71-32.6-26.73a.45.45 0 0 1 .24-.61l17.23-7.13a.62.6 65.2 0 1 .78.3q8.84 17.89 27.09 16.14 7.18-.69 12.25-4.56c9.72-7.43 9.58-18.26 9.73-29.66a.27.27 0 0 0-.46-.2c-12.06 11.86-27.73 13.49-42.9 6.67-16.93-7.61-27.48-24.16-27.96-42.63-.65-24.61 18.65-46.93 43.4-48.59q15.71-1.06 27.32 10.43.7.69.7-.3Zm-24.46 66.33a28.85 25.95 90 0 0 25.95-28.85 28.85 25.95 90 0 0-25.95-28.85 28.85 25.95 90 0 0-25.95 28.85 28.85 25.95 90 0 0 25.95 28.85Z"/><path fill="#c94636" d="M538.3 134.56c9.39 19.36 34.18 17.89 45.86 1.41a.61.6-54.8 0 1 .84-.15l15.13 10.19a.57.57 0 0 1 .15.8c-25.18 36.08-81.49 22.63-86.15-21.9-2.9-27.67 16.18-52.6 44.57-52.62 21.73-.01 36.07 15.31 42.59 35.17a.62.61-20.4 0 1-.35.75l-62.46 25.88a.35.35 0 0 0-.18.47Zm2.19-34.08q-5.96 7.53-5.9 17.38a.32.32 0 0 0 .44.3l41.31-17.22a.89.89 0 0 0 .39-1.32c-9.12-12.95-26.91-10.95-36.24.86Z"/><path fill="#fff" d="M540.49 100.48c9.33-11.81 27.12-13.81 36.24-.86a.89.89 0 0 1-.39 1.32l-41.31 17.22a.32.32 0 0 1-.44-.3q-.06-9.85 5.9-17.38Z"/><ellipse fill="#fff" rx="28.85" ry="25.95" transform="rotate(90 153.34 273.2)"/><ellipse fill="#fff" rx="28.81" ry="26.86" transform="rotate(90.2 50.764 170.01)"/><ellipse fill="#fff" rx="28.79" ry="26.82" transform="rotate(90.1 102.28 221.722)"/><ellipse fill="#646265" rx="1.87" ry=".97" transform="rotate(90 183.455 362.955)"/><path fill="#141415" d="m495.81 194.64 5.49 8.4a.43.43 0 0 1-.39.66c-1.37-.11-5.75-7.65-6.75-9.16a1.03 1.03 0 0 0-.83-.45l-7.43-.13a.64.64 0 0 0-.65.64v8.33a.53.53 0 0 1-.49.53l-.25.03a.49.49 0 0 1-.54-.49l-.06-24.06a.51.51 0 0 1 .52-.51c3.88.09 10.45-.78 13.53 1.31 5.31 3.61 4.1 11.5-1.86 13.96a.64.64 0 0 0-.29.94Zm-1.95-1.91c5.66-.08 7.61-6.41 4.76-10.63-2.39-3.53-9.3-2.81-12.78-2.27a.69.69 0 0 0-.59.68v11.69a.52.52 0 0 0 .51.52q4.08.07 8.1.01Z"/><path fill="#fff" d="M498.62 182.1c2.85 4.22.9 10.55-4.76 10.63q-4.02.06-8.1-.01a.52.52 0 0 1-.51-.52v-11.69a.69.69 0 0 1 .59-.68c3.48-.54 10.39-1.26 12.78 2.27Z"/><path fill="#f49b1f" d="m64.48 202.34 17.87-.08a.67.67 0 0 1 .4 1.21l-14.51 10.44a.67.67 0 0 0-.24.75l5.6 16.97a.67.67 0 0 1-1.04.75l-14.4-10.57a.67.67 0 0 0-.8 0l-14.4 10.57a.67.67 0 0 1-1.04-.75l5.6-16.97a.67.67 0 0 0-.24-.75l-14.51-10.44a.67.67 0 0 1 .4-1.21l17.87.08a.67.67 0 0 0 .64-.46l5.44-17.02a.67.67 0 0 1 1.28 0l5.44 17.02a.67.67 0 0 0 .64.46Zm64.46.06 17.62-.23a.82.82 0 0 1 .48 1.49l-14.39 10.17a.82.82 0 0 0-.3.93l5.66 16.69a.82.82 0 0 1-1.26.92l-14.12-10.54a.82.82 0 0 0-.98 0l-14.12 10.54a.82.82 0 0 1-1.26-.92l5.66-16.69a.82.82 0 0 0-.3-.93l-14.39-10.17a.82.82 0 0 1 .48-1.49l17.62.23a.82.82 0 0 0 .79-.57l5.23-16.83a.82.82 0 0 1 1.56 0l5.23 16.83a.82.82 0 0 0 .79.57Zm64.38-.04 17.61-.17a.79.79 0 0 1 .47 1.43l-14.35 10.21a.79.79 0 0 0-.29.9l5.6 16.69a.79.79 0 0 1-1.22.89L187 221.82a.79.79 0 0 0-.94 0l-14.14 10.49a.79.79 0 0 1-1.22-.89l5.6-16.69a.79.79 0 0 0-.29-.9l-14.35-10.21a.79.79 0 0 1 .47-1.43l17.61.17a.79.79 0 0 0 .76-.55l5.28-16.8a.79.79 0 0 1 1.5 0l5.28 16.8a.79.79 0 0 0 .76.55Zm64.38.03 17.68-.23a.81.81 0 0 1 .47 1.47l-14.43 10.19a.81.81 0 0 0-.3.93l5.68 16.73a.81.81 0 0 1-1.25.91l-14.16-10.58a.81.81 0 0 0-.96 0l-14.16 10.58a.81.81 0 0 1-1.25-.91l5.68-16.73a.81.81 0 0 0-.3-.93l-14.43-10.19a.81.81 0 0 1 .47-1.47l17.68.23a.81.81 0 0 0 .78-.57l5.24-16.88a.81.81 0 0 1 1.54 0l5.24 16.88a.81.81 0 0 0 .78.57Zm64.39.03 17.65-.23a.81.81 0 0 1 .48 1.47l-14.42 10.18a.81.81 0 0 0-.3.92l5.68 16.72a.81.81 0 0 1-1.25.91l-14.15-10.57a.81.81 0 0 0-.96 0l-14.15 10.57a.81.81 0 0 1-1.25-.91l5.68-16.72a.81.81 0 0 0-.3-.92l-14.42-10.18a.81.81 0 0 1 .48-1.47l17.65.23a.81.81 0 0 0 .79-.57l5.23-16.86a.81.81 0 0 1 1.54 0l5.23 16.86a.81.81 0 0 0 .79.57Z"/><path fill="#646265" d="M553.54 195.85c2.3 6.06 7.9 8.57 13.17 3.59.48-.45.99-.71 1.53-.29a.57.57 0 0 1 .11.78c-5.15 7.24-16.38 3.49-16.59-4.92-.31-12.55 16.71-13.85 18.28-1.01a1.12 1.11 86.6 0 1-1.1 1.25h-14.99a.44.44 0 0 0-.41.6Zm14.38-2.88c-1.56-8.36-12.93-8.51-14.3.03a.43.43 0 0 0 .43.5h13.43a.45.45 0 0 0 .44-.53Zm33.22-4.47c2.69-6.04 13.75-2.81 12.55-.37a.46.45 30.3 0 1-.66.17c-2.8-1.91-10.57-3.33-10.31 2.3a2.15 2.14 5.8 0 0 1.62 1.98c2.81.69 8.05 1.54 9.61 3.81 1.5 2.17.31 5.11-2.03 6.28q-5.76 2.88-11.31-1.35-.48-.37-.34-1.16a.55.55 0 0 1 .87-.34q3.96 2.98 9.09 1.93c1.68-.34 3.36-3.13 2.01-4.85-2.18-2.79-14.18-1.48-11.1-8.4Z"/><path fill="#141415" d="M509.98 202.06c-7.74-5.42-3.84-18.2 5.99-16.59q6.58 1.08 7.61 8.33a1.06 1.05-4 0 1-1.05 1.2h-14.57a.73.73 0 0 0-.71.88c1.44 6.71 9.04 8.59 13.77 3.56a.69.68-61 0 1 .67-.2l.32.09a.12.12 0 0 1 .08.16c-1.99 4.59-8.83 4.86-12.11 2.57Zm12.2-9.14c-2.4-8.95-14.69-8.12-14.77.27a.57.57 0 0 0 .57.57l13.57-.02a.65.65 0 0 0 .63-.82Zm11.23 8.12a.36.36 0 0 0 .66.01q3.53-7.89 6.06-14.63.47-1.24 1.75-1.14a.5.49-75.8 0 1 .41.7l-7.56 17.06a1.06 1.06 0 0 1-1.94-.01l-7.19-16.98a.56.55 75.5 0 1 .45-.77l.29-.03a.78.78 0 0 1 .8.48l6.27 15.31Z"/><rect width="1.74" height="18.22" x="545.51" y="185.3" fill="#646265" rx=".43"/><path fill="#646265" d="M589.2 200.3a.65.65 0 0 0 1.2.01c.83-1.92 6.04-15.21 7.23-15.12a.69.69 0 0 1 .58.96l-7.34 17.04a1.03 1.03 0 0 1-1.9 0l-3.4-7.92a.67.67 0 0 0-1.23.01l-3.14 7.68a1.2 1.2 0 0 1-2.21.03L571.54 186a.52.51-22.9 0 1 .28-.68c1.8-.73 6.93 12.95 7.81 14.98a.61.6 44.9 0 0 1.11 0l2.99-6.92a1.85 1.84-44.8 0 0 .01-1.44l-2.59-6.11a.4.4 0 0 1 .38-.55c1.57.05 2.45 3.7 3.1 5.01a.5.5 0 0 0 .92-.05l1.51-4.2a1.02 1-.2 0 1 .63-.62l.47-.16a.51.51 0 0 1 .64.68l-2.54 6.2a1.38 1.35-45.7 0 0 0 1.03l2.94 7.13Z"/><path fill="#fff" d="M507.41 193.19c.08-8.39 12.37-9.22 14.77-.27a.65.65 0 0 1-.63.82l-13.57.02a.57.57 0 0 1-.57-.57Zm46.21-.19c1.37-8.54 12.74-8.39 14.3-.03a.45.45 0 0 1-.44.53h-13.43a.43.43 0 0 1-.43-.5Z"/></svg>