<?xml version="1.0" encoding="utf-8"?>
<!-- Generator: Adobe Illustrator 26.3.1, SVG Export Plug-In . SVG Version: 6.00 Build 0)  -->
<svg version="1.1" id="Calque_1" xmlns="http://www.w3.org/2000/svg" xmlns:xlink="http://www.w3.org/1999/xlink" x="0px" y="0px"
	 viewBox="0 0 600 600" style="enable-background:new 0 0 600 600;" xml:space="preserve">
<style type="text/css">
	.st0{stroke:#000000;stroke-miterlimit:10;}
	.st1{fill:#E30613;stroke:#E30613;stroke-miterlimit:10;}
	.st2{fill:#FFFFFF;}
	.st3{font-family:'ForteMT';}
	.st4{font-size:118.53px;}
	.st5{enable-background:new    ;}
	.st6{font-family:'ArabicTypesetting';}
	.st7{font-size:106px;}
	.st8{font-family:'MicrosoftYaHeiUI';}
</style>
<path class="st0" d="M452.6,125.2c75.2,33,108.3,123.2,73.9,201.6c-8.1,18.4-19.2,34.6-32.4,48c-1.8,6.7-4.6,21.5,0.5,39
	c7,23.8,24.3,36.4,29.6,39.9c-12.4-0.9-32.6-3.9-54.6-15.2c-16-8.2-27.5-18.2-35.1-25.8c-15,5.1-43.8,12.5-78,5.3
	c-9.6-2-19.1-5-28.4-9.1c-75.2-33-108.3-123.2-73.9-201.6C288.6,129,377.5,92.2,452.6,125.2z"/>
<path class="st1" d="M347.5,187.8c0,82.1-69.4,148.7-154.9,148.7c-20.1,0-39.4-3.7-57-10.4c-6.8,1.1-21.6,4.4-35.5,16.1
	c-19,16-23.5,36.9-24.7,43.1c-4.2-11.7-9.6-31.4-8-56.1c1.1-18,5.6-32.5,9.5-42.5c-10.7-11.7-29-35.1-36.2-69.3
	c-2-9.6-3.1-19.5-3.1-29.7C37.6,105.6,107,39,192.5,39C278.2,39.1,347.5,105.6,347.5,187.8z"/>
<text transform="matrix(1 0 0 1 109.752 212.2002)" class="st2 st3 st4">AS</text>
<text transform="matrix(1 0 0 1 283.2637 283.3976)" class="st5"><tspan x="0" y="0" class="st2 st6 st4">  </tspan><tspan x="47.8" y="0" class="st2 st6 st7">ع ص </tspan></text>
<text transform="matrix(1 0 0 1 0 529.7651)" class="st8 st4">Traduction</text>
</svg>
